<?xml version="1.0" encoding="iso-8859-1"?>
<!-- Uploaded to: SVG Repo, www.svgrepo.com, Generator: SVG Repo Mixer Tools -->
<svg fill="#000000" height="800px" width="800px" version="1.1" id="Layer_1" xmlns="http://www.w3.org/2000/svg" xmlns:xlink="http://www.w3.org/1999/xlink" 
	 viewBox="0 0 431.161 431.161" xml:space="preserve">
<g>
	<g>
		<path d="M423.761,37.088c-6.712-10.104-20.344-12.852-30.448-6.142l-67.704,44.975c2.805-28.234-20.073-53.925-37.661-53.925
			c-9.668,0-17.979,5.698-21.833,13.906C258.831,15.003,238.964,0,215.58,0c-23.384,0-43.251,15.003-50.535,35.903
			c-3.853-8.209-12.164-13.906-21.833-13.906c-17.587,0-40.466,25.691-37.661,53.925L37.848,30.947
			C27.744,24.236,14.111,26.985,7.4,37.088c-6.712,10.104-3.962,23.736,6.142,30.448l147.14,97.742l-32.977,181.924
			c-1.295,7.474,4.492,14.3,12.022,14.3c3.471,0,7.913,0,13.092,0l-2.423,12.352l-92.547-18.159
			c-14.28-2.802-28.135,6.506-30.938,20.788c-2.803,14.283,6.504,28.135,20.789,30.938c127.74,25.065,119.828,23.728,123.484,23.728
			c5.198,0,10.323-1.539,14.701-4.48c5.802-3.899,9.817-9.943,11.163-16.802l9.489-48.363c2.59,0,15.497,0,18.087,0l9.489,48.363
			c1.346,6.859,5.361,12.903,11.163,16.802c4.378,2.941,9.502,4.48,14.701,4.48c3.656,0-4.255,1.337,123.484-23.728
			c14.284-2.803,23.591-16.654,20.789-30.938c-2.803-14.283-16.658-23.59-30.938-20.788l-92.547,18.159l-2.423-12.352
			c5.179,0,9.621,0,13.092,0c7.53,0,13.317-6.825,12.022-14.3l-32.977-181.924l147.14-97.742
			C427.723,60.825,430.473,47.193,423.761,37.088z M250.999,125.484c-14.122,0-56.715,0-70.836,0L115.862,82.77
			c7.806-11.675,16.549-12.48,27.351-12.48c7.924,0,14.928-3.837,19.327-9.735c3.448,26.228,25.872,46.478,53.041,46.478
			s49.593-20.25,53.041-46.478c4.399,5.898,11.403,9.735,19.327,9.735c10.802,0,19.546,0.806,27.351,12.48L250.999,125.484z"/>
	</g>
</g>
</svg>